<svg width="48" height="48" viewBox="0 0 48 48" fill="none" xmlns="http://www.w3.org/2000/svg">
<path fill-rule="evenodd" clip-rule="evenodd" d="M12 7C12 6.73478 12.1054 6.48043 12.2929 6.29289C12.4804 6.10536 12.7348 6 13 6C13.2652 6 13.5196 6.10536 13.7071 6.29289C13.8946 6.48043 14 6.73478 14 7V12C14 12.2652 13.8946 12.5196 13.7071 12.7071C13.5196 12.8946 13.2652 13 13 13C12.7348 13 12.4804 12.8946 12.2929 12.7071C12.1054 12.5196 12 12.2652 12 12V11H9C8.73478 11 8.48043 11.1054 8.29289 11.2929C8.10536 11.4804 8 11.7348 8 12V16H34V12C34 11.7348 33.8946 11.4804 33.7071 11.2929C33.5196 11.1054 33.2652 11 33 11H30V9H33C33.7956 9 34.5587 9.31607 35.1213 9.87868C35.6839 10.4413 36 11.2044 36 12V28.07C37.7515 28.3232 39.3422 29.2303 40.452 30.6088C41.5618 31.9874 42.1083 33.7351 41.9816 35.5003C41.8548 37.2655 41.0643 38.9172 39.769 40.1231C38.4737 41.329 36.7697 41.9996 35 42C33.8714 42.0007 32.7593 41.7283 31.7589 41.2058C30.7585 40.6834 29.8994 39.9266 29.255 39H9C8.20435 39 7.44129 38.6839 6.87868 38.1213C6.31607 37.5587 6 36.7956 6 36V12C6 11.2044 6.31607 10.4413 6.87868 9.87868C7.44129 9.31607 8.20435 9 9 9H12V7ZM28 35C27.9998 33.3165 28.6062 31.6893 29.7082 30.4165C30.8101 29.1438 32.3338 28.3107 34 28.07V18H8V36C8 36.2652 8.10536 36.5196 8.29289 36.7071C8.48043 36.8946 8.73478 37 9 37H28.29C28.0971 36.3509 27.9994 35.6772 28 35ZM35 40C36.3261 40 37.5979 39.4732 38.5355 38.5355C39.4732 37.5979 40 36.3261 40 35C40 33.6739 39.4732 32.4021 38.5355 31.4645C37.5979 30.5268 36.3261 30 35 30C33.6739 30 32.4021 30.5268 31.4645 31.4645C30.5268 32.4021 30 33.6739 30 35C30 36.3261 30.5268 37.5979 31.4645 38.5355C32.4021 39.4732 33.6739 40 35 40Z" fill="#5C27C0"/>
<path fill-rule="evenodd" clip-rule="evenodd" d="M10 23C10 22.4696 10.2107 21.9609 10.5858 21.5858C10.9609 21.2107 11.4696 21 12 21H14C14.5304 21 15.0391 21.2107 15.4142 21.5858C15.7893 21.9609 16 22.4696 16 23V25C16 25.5304 15.7893 26.0391 15.4142 26.4142C15.0391 26.7893 14.5304 27 14 27H12C11.4696 27 10.9609 26.7893 10.5858 26.4142C10.2107 26.0391 10 25.5304 10 25V23ZM14 23V25H12V23H14ZM20 21C19.4696 21 18.9609 21.2107 18.5858 21.5858C18.2107 21.9609 18 22.4696 18 23V25C18 25.5304 18.2107 26.0391 18.5858 26.4142C18.9609 26.7893 19.4696 27 20 27H22C22.5304 27 23.0391 26.7893 23.4142 26.4142C23.7893 26.0391 24 25.5304 24 25V23C24 22.4696 23.7893 21.9609 23.4142 21.5858C23.0391 21.2107 22.5304 21 22 21H20ZM22 23H20V25H22V23ZM26 23C26 22.4696 26.2107 21.9609 26.5858 21.5858C26.9609 21.2107 27.4696 21 28 21H30C30.5304 21 31.0391 21.2107 31.4142 21.5858C31.7893 21.9609 32 22.4696 32 23V25C32 25.5304 31.7893 26.0391 31.4142 26.4142C31.0391 26.7893 30.5304 27 30 27H28C27.4696 27 26.9609 26.7893 26.5858 26.4142C26.2107 26.0391 26 25.5304 26 25V23ZM28 23H30V25H28V23ZM12 29C11.4696 29 10.9609 29.2107 10.5858 29.5858C10.2107 29.9609 10 30.4696 10 31V33C10 33.5304 10.2107 34.0391 10.5858 34.4142C10.9609 34.7893 11.4696 35 12 35H14C14.5304 35 15.0391 34.7893 15.4142 34.4142C15.7893 34.0391 16 33.5304 16 33V31C16 30.4696 15.7893 29.9609 15.4142 29.5858C15.0391 29.2107 14.5304 29 14 29H12ZM12 31V33H14V31H12ZM18 31C18 30.4696 18.2107 29.9609 18.5858 29.5858C18.9609 29.2107 19.4696 29 20 29H22C22.5304 29 23.0391 29.2107 23.4142 29.5858C23.7893 29.9609 24 30.4696 24 31V33C24 33.5304 23.7893 34.0391 23.4142 34.4142C23.0391 34.7893 22.5304 35 22 35H20C19.4696 35 18.9609 34.7893 18.5858 34.4142C18.2107 34.0391 18 33.5304 18 33V31ZM20 31H22V33H20V31Z" fill="#AD93DF"/>
<path d="M35 31.5C35.2652 31.5 35.5196 31.6054 35.7071 31.7929C35.8946 31.9804 36 32.2348 36 32.5V34.586L36.707 35.293C36.8892 35.4816 36.99 35.7342 36.9877 35.9964C36.9854 36.2586 36.8802 36.5094 36.6948 36.6948C36.5094 36.8802 36.2586 36.9854 35.9964 36.9877C35.7342 36.99 35.4816 36.8892 35.293 36.707L34 35.414V32.5C34 32.2348 34.1054 31.9804 34.2929 31.7929C34.4804 31.6054 34.7348 31.5 35 31.5Z" fill="#5C27C0"/>
<path d="M27 13C26.7348 13 26.4804 12.8946 26.2929 12.7071C26.1054 12.5196 26 12.2652 26 12V11H16V9H26V7C26 6.73478 26.1054 6.48043 26.2929 6.29289C26.4804 6.10536 26.7348 6 27 6C27.2652 6 27.5196 6.10536 27.7071 6.29289C27.8946 6.48043 28 6.73478 28 7V12C28 12.2652 27.8946 12.5196 27.7071 12.7071C27.5196 12.8946 27.2652 13 27 13Z" fill="#5C27C0"/>
</svg>
