<svg width="51" height="50" viewBox="0 0 51 50" fill="none" xmlns="http://www.w3.org/2000/svg">
<path d="M43.4117 5H7.58055C5.62775 5.07166 4.0691 6.63032 3.99744 8.58312V33.6649C4.0691 35.6177 5.62775 37.1764 7.58055 37.248H43.4117C45.3645 37.1764 46.9232 35.6177 46.9948 33.6649V8.58312C46.9619 7.64331 46.5738 6.75097 45.9088 6.08602C45.2439 5.42107 44.3515 5.03297 43.4117 5ZM43.4117 33.6649H7.58055V8.58312H43.4117V33.6649Z" fill="#5C27C0"/>
<path d="M29.9052 27.5277V29.7671H11.9896V27.5277C11.9896 24.5537 17.9734 23.0488 20.9474 23.0488C23.9214 23.0488 29.9052 24.5537 29.9052 27.5277Z" fill="#AD93DF"/>
<path d="M17.7804 13.1634C18.6203 12.3234 19.7595 11.8516 20.9474 11.8516C21.5356 11.8516 22.118 11.9674 22.6614 12.1925C23.2048 12.4176 23.6986 12.7475 24.1145 13.1634C24.5304 13.5793 24.8603 14.0731 25.0854 14.6165C25.3105 15.1599 25.4263 15.7423 25.4263 16.3305C25.4263 16.9186 25.3105 17.5011 25.0854 18.0445C24.8603 18.5879 24.5304 19.0816 24.1145 19.4975C23.6986 19.9134 23.2048 20.2433 22.6614 20.4684C22.118 20.6935 21.5356 20.8094 20.9474 20.8094C19.7595 20.8094 18.6203 20.3375 17.7804 19.4975C17.3645 19.0816 17.0345 18.5879 16.8095 18.0445C16.5844 17.5011 16.4685 16.9186 16.4685 16.3305C16.4685 15.1426 16.9404 14.0034 17.7804 13.1634Z" fill="#AD93DF"/>
<path d="M29.9052 13.6431V11.8516H40.6546V13.6431H29.9052Z" fill="#AD93DF"/>
<path d="M29.9052 17.2262V15.4347H40.6546V17.2262H29.9052Z" fill="#AD93DF"/>
<path d="M29.9052 20.8094V19.0178H37.0714V20.8094H29.9052Z" fill="#AD93DF"/>
</svg>
