<svg width="98" height="102" viewBox="0 0 98 102" fill="none" xmlns="http://www.w3.org/2000/svg">
<g filter="url(#filter0_d_1_145)">
<path d="M14.0026 0H98.0026V84H24.0026C18.4797 84 14.0026 79.5229 14.0026 74V0Z" fill="#5C27C0" shape-rendering="crispEdges"/>
<path d="M36.5982 11C36.046 11 35.5982 11.4477 35.5982 12V16.7018C35.5982 17.254 35.1505 17.7018 34.5982 17.7018H26.0026C25.4503 17.7018 25.0026 18.1495 25.0026 18.7018V24.2632C25.0026 35.2456 27.9093 41.3684 34.895 45.1754C37.492 46.7429 39.889 48.6962 42.0213 50.9825C43.7351 53.0346 45.8253 54.6448 48.1474 55.7018L50.115 56.3814C50.5181 56.5206 50.7885 56.9001 50.7885 57.3266V63.5614C50.7885 64.1137 50.3408 64.5614 49.7885 64.5614H46.7565C41.8806 64.5614 40.2397 65.807 40.2397 69.5088V71C40.2397 71.5523 40.6874 72 41.2397 72H69.714C70.2663 72 70.714 71.5523 70.714 71V69.7719C70.714 66.1404 68.7137 64.5088 64.0878 64.5088H61.1652C60.613 64.5088 60.1652 64.0611 60.1652 63.5088V57.3351C60.1652 56.9045 60.4409 56.5223 60.8494 56.3863L62.8532 55.7193C65.1788 54.6612 67.2697 53.0444 68.9794 50.9825C71.2038 48.6024 73.6938 46.5561 76.387 44.8947C78.4781 43.765 80.3457 42.1749 81.8786 40.219C83.4116 38.263 84.5786 35.9811 85.3105 33.5088C85.808 30.4477 86.0383 27.3394 85.9981 24.2281V18.7193C85.9981 18.167 85.5504 17.7193 84.9981 17.7193H76.3555C75.8032 17.7193 75.3555 17.2716 75.3555 16.7193V12C75.3555 11.4477 74.9078 11 74.3555 11H36.5982ZM54.5607 24.3178C54.9062 23.5099 56.051 23.5084 56.3986 24.3155L58.4203 29.0096C58.5782 29.3764 58.9393 29.614 59.3387 29.614H64.045C64.9275 29.614 65.3774 30.6738 64.7643 31.3087L60.7239 35.4928C60.492 35.733 60.3953 36.0731 60.466 36.3994L61.5966 41.6134C61.7824 42.4701 60.8542 43.1342 60.1033 42.6818L55.9963 40.2077C55.6771 40.0153 55.2774 40.0165 54.9593 40.2107L50.8594 42.7132C50.1088 43.1714 49.1748 42.5072 49.3611 41.6478L50.4876 36.4528C50.5584 36.1261 50.4613 35.7855 50.2288 35.5453L46.1789 31.3622C45.5647 30.7277 46.0143 29.6667 46.8974 29.6667H51.6132C52.0135 29.6667 52.3753 29.4279 52.5327 29.0599L54.5607 24.3178ZM30.6711 25.4989C30.6148 24.9116 31.0765 24.4035 31.6665 24.4035H34.5045C35.0568 24.4035 35.5045 24.8512 35.5045 25.4035V37.6989C35.5045 38.0299 35.2894 38.3092 35.0162 38.1223C34.2958 37.6298 33.119 35.9402 32.207 34.0702C31.5416 32.2301 31.1153 30.2921 30.9411 28.3158L30.6711 25.4989ZM75.446 25.4002C75.4478 24.8492 75.895 24.4035 76.446 24.4035H79.701C80.2995 24.4035 80.7639 24.9257 80.6942 25.5201L80.3721 28.2632C80.2655 31.4761 79.1148 34.5341 77.1371 36.8596C77.0222 37.0354 76.8997 37.2042 76.77 37.3654C76.2708 37.9865 75.4059 37.5515 75.4085 36.7546L75.446 25.4002Z" stroke="#EFE5FF" stroke-width="2" stroke-linecap="round" stroke-linejoin="round"/>
</g>
<defs>
<filter id="filter0_d_1_145" x="0.00256348" y="-10" width="112" height="112" filterUnits="userSpaceOnUse" color-interpolation-filters="sRGB">
<feFlood flood-opacity="0" result="BackgroundImageFix"/>
<feColorMatrix in="SourceAlpha" type="matrix" values="0 0 0 0 0 0 0 0 0 0 0 0 0 0 0 0 0 0 127 0" result="hardAlpha"/>
<feOffset dy="4"/>
<feGaussianBlur stdDeviation="7"/>
<feComposite in2="hardAlpha" operator="out"/>
<feColorMatrix type="matrix" values="0 0 0 0 0 0 0 0 0 0 0 0 0 0 0 0 0 0 0.25 0"/>
<feBlend mode="normal" in2="BackgroundImageFix" result="effect1_dropShadow_1_145"/>
<feBlend mode="normal" in="SourceGraphic" in2="effect1_dropShadow_1_145" result="shape"/>
</filter>
</defs>
</svg>
