<svg width="112" height="102" viewBox="0 0 112 102" fill="none" xmlns="http://www.w3.org/2000/svg">
<g filter="url(#filter0_d_1_129)">
<path d="M14 0H98V84H24C18.4772 84 14 79.5229 14 74V0Z" fill="#5C27C0" shape-rendering="crispEdges"/>
<path d="M71.4968 32.7114C78.2388 32.7486 81.8904 33.0493 84.271 35.4299C86.9957 38.1546 86.9957 42.5377 86.9957 51.3039V54.4037C86.9957 63.173 86.9957 67.5561 84.271 70.2808C81.5494 73.0024 77.1632 73.0024 68.397 73.0024H43.5987C34.8325 73.0024 30.4463 73.0024 27.7247 70.2808C25 67.553 25 63.173 25 54.4037V51.3039C25 42.5377 25 38.1546 27.7247 35.4299C30.1053 33.0493 33.7569 32.7486 40.4989 32.7114" stroke="#EFE5FF" stroke-width="2" stroke-linecap="round"/>
<path d="M55.9978 51.2972V11M55.9978 11L65.2972 21.8492M55.9978 11L46.6985 21.8492" stroke="#EFE5FF" stroke-width="2" stroke-linecap="round" stroke-linejoin="round"/>
</g>
<defs>
<filter id="filter0_d_1_129" x="0" y="-10" width="112" height="112" filterUnits="userSpaceOnUse" color-interpolation-filters="sRGB">
<feFlood flood-opacity="0" result="BackgroundImageFix"/>
<feColorMatrix in="SourceAlpha" type="matrix" values="0 0 0 0 0 0 0 0 0 0 0 0 0 0 0 0 0 0 127 0" result="hardAlpha"/>
<feOffset dy="4"/>
<feGaussianBlur stdDeviation="7"/>
<feComposite in2="hardAlpha" operator="out"/>
<feColorMatrix type="matrix" values="0 0 0 0 0 0 0 0 0 0 0 0 0 0 0 0 0 0 0.25 0"/>
<feBlend mode="normal" in2="BackgroundImageFix" result="effect1_dropShadow_1_129"/>
<feBlend mode="normal" in="SourceGraphic" in2="effect1_dropShadow_1_129" result="shape"/>
</filter>
</defs>
</svg>
